<svg xmlns="http://www.w3.org/2000/svg" width="149.99974"
   height="80.642082"
   viewBox="0 0 219.3285 314.43799">
 
  <path fill="rgba(111, 255, 0, 0.3)"
     d="m 383.62126,-5.1931844e-6 -547.918,0 c -5.006,0 -9.339,1.8239999931844 -12.993,5.4839999931844 -3.66,3.659 -5.484,7.9860002 -5.484,12.9920002 l 0,277.486995 c 0,5.006 1.83,9.339 5.484,12.992 3.653,3.66 7.986,5.483 12.993,5.483 l 547.923,0 c 5,0 9.332,-1.823 12.992,-5.483 3.654,-3.653 5.484,-7.986 5.484,-12.992 l 0,-277.492995 c 0,-5 -1.83,-9.3330002 -5.484,-12.9930002 -3.66,-3.647 -7.992,-5.4769999931844 -12.997,-5.4769999931844 z M 365.15026,203.58199 c -20.404,0 -37.816,7.216 -52.252,21.652 -14.432,14.438 -21.652,31.849 -21.652,52.253 l -363.168001,0 c 0,-20.398 -7.215,-37.815 -21.652,-52.253 -14.430999,-14.437 -31.853999,-21.652 -52.251999,-21.652 l 0,-92.73 c 20.398,0 37.815,-7.215 52.251999,-21.651995 14.437,-14.437 21.652,-31.842 21.652,-52.252 l 363.168001,0 c 0,20.404 7.215,37.815 21.652,52.252 14.43,14.437995 31.848,21.651995 52.252,21.651995 l 0,92.73 z"/>
  <path fill="rgba(111, 255, 0, 0.3)"
     d="m 121.708,132.91049 0,-39.259995 c 4.309,3.207 7.045,7.992995 8.312,14.497995 0.318,1.592 1.879,2.632 3.402,2.448 l 30.307,-3.953 c 0.832,-0.11 1.578,-0.545 2.068,-1.218 0.494,-0.668 0.691,-1.519 0.551,-2.338 -2.174,-12.582995 -7.314,-22.809995 -15.275,-30.385995 -7.418,-7.062 -17.283,-11.579 -29.365,-13.446 l 0,-9.192 c 0,-1.689 -1.371,-3.06 -3.059,-3.06 l -17.369,0 c -1.689003,0 -3.060003,1.371 -3.060003,3.06 l 0,9.143 c -13.183,1.824 -23.997,7.209 -32.185,16.028 -8.776,9.449 -13.219,21.255 -13.219,35.085995 0,13.599 3.917,25.349 11.634,34.927 7.326,9.082 18.678,16.034 33.77,20.667 l 0,42.424 c -2.203,-1.707 -4.29,-3.855 -6.242,-6.426 -3.213,-4.235 -5.447,-9.382 -6.628,-15.281 -0.306,-1.549 -1.658,-2.583 -3.329,-2.442 l -31.267,3.354 c -0.833,0.092 -1.585,0.515 -2.099,1.176 -0.508,0.661 -0.722,1.505 -0.6,2.325 2.484,16.322 8.335,29.187 17.393,38.244 8.519,8.513 19.529,13.874 32.766,15.948 l 0,19.138 c 0,1.689 1.371,3.06 3.060003,3.06 l 17.37,0 c 1.688,0 3.059,-1.37 3.059,-3.06 l 0,-19.786 c 15.014,-2.632 27.02,-8.947 35.717,-18.795 9.211,-10.435 13.887,-23.408 13.887,-38.562 0,-13.623 -3.746,-24.988 -11.139,-33.776 -7.15,-8.507 -19.745,-15.233 -38.46,-20.545 z m 14.125,58.63 c 0,5.287 -1.604,9.755 -4.908,13.653 -2.521,2.98 -5.562,5.08 -9.223,6.347 l 0,-38.52 c 4.541,1.744 7.926,3.96 10.08,6.616 2.736,3.341 4.051,7.24 4.051,11.904 z m -46.952003,-82.657 c 0,-4.002 1.175,-7.57 3.611,-10.898995 1.573,-2.16 3.464,-3.886 5.729,-5.22 l 0,31.695995 c -2.558,-1.598 -4.584,-3.446 -6.053,-5.545 -2.216,-3.129 -3.287,-6.415 -3.287,-10.032 z"/>
</svg>
